<?xml version="1.0" standalone="no"?>
<!DOCTYPE svg PUBLIC "-//W3C//DTD SVG 20010904//EN"
 "http://www.w3.org/TR/2001/REC-SVG-20010904/DTD/svg10.dtd">
<svg version="1.0" xmlns="http://www.w3.org/2000/svg"
 width="752.000000pt" height="752.000000pt" viewBox="0 0 752.000000 752.000000"
 preserveAspectRatio="xMidYMid meet">

<g transform="translate(0.000000,752.000000) scale(0.100000,-0.100000)"
fill="#000000" stroke="none">
<path d="M2620 5173 c-61 -23 -110 -95 -110 -163 0 -46 37 -110 80 -138 l35
-22 -3 -343 -2 -343 -36 -13 c-67 -24 -74 -49 -74 -274 0 -218 6 -244 60 -272
16 -8 46 -15 68 -15 l38 0 28 -72 c80 -206 235 -402 409 -518 33 -23 53 -42
46 -44 -109 -32 -265 -110 -347 -172 -95 -74 -179 -162 -186 -196 -14 -71 62
-146 133 -132 19 4 60 32 104 71 91 83 139 115 230 158 158 75 355 107 667
107 462 0 668 -59 894 -257 42 -36 88 -70 102 -75 59 -23 144 39 144 103 0 46
-28 86 -108 155 -141 121 -229 171 -420 237 -8 3 19 29 65 63 173 130 302 299
388 510 22 55 24 57 67 62 51 7 81 22 102 52 13 19 16 59 16 234 l0 212 -25
31 c-17 20 -40 33 -67 38 l-40 8 -25 85 c-87 302 -301 559 -583 700 -356 179
-801 153 -1132 -66 -139 -93 -291 -255 -369 -396 l-29 -53 0 213 c0 174 2 212
14 212 19 0 84 74 92 105 10 41 -2 115 -23 144 -36 48 -81 71 -137 70 -28 0
-58 -3 -66 -6z m915 -532 c0 -248 3 -251 234 -251 l151 0 32 29 33 29 3 181
c2 100 7 181 11 181 17 0 120 -39 171 -65 228 -115 392 -313 466 -562 36 -120
44 -303 19 -424 -102 -506 -595 -827 -1095 -713 -337 77 -593 329 -681 669
-31 123 -32 322 -1 438 27 99 89 231 146 310 81 114 239 246 354 294 55 23
136 52 147 53 6 0 10 -63 10 -169z"/>
<path d="M3230 4147 c-53 -17 -123 -93 -139 -150 -18 -64 -9 -171 23 -272 87
-273 326 -456 616 -472 125 -7 218 13 339 73 206 102 344 300 371 534 15 131
-19 215 -109 268 l-46 27 -510 2 c-355 1 -521 -2 -545 -10z m570 -177 c24 -24
25 -47 3 -72 -15 -17 -37 -18 -269 -18 -216 0 -255 2 -268 16 -22 21 -20 50 4
74 19 19 33 20 265 20 232 0 246 -1 265 -20z m230 0 c24 -24 25 -38 4 -68 -29
-42 -104 -17 -104 35 0 20 38 53 60 53 11 0 29 -9 40 -20z"/>
</g>
</svg>
