<?xml version="1.0" encoding="utf-8"?>
<!-- Uploaded to: SVG Repo, www.svgrepo.com, Generator: SVG Repo Mixer Tools -->
<svg width="800px" height="800px" viewBox="0 -50.15 451.32 451.32" xmlns="http://www.w3.org/2000/svg"><defs><style>.a{fill:#ffffff;}.b{fill:#211715;}.c{fill:#fcc56b;}.d{fill:#ef8561;}.e{fill:#7a7473;}.f{fill:#5394cf;}</style></defs><path class="a" d="M403.224,162.818c6.972,1.52,14.465,3.286,21.329,5.029,4.021-3.894,7.53-7.286,7.53-7.286,6.27-1.532,10.867-2.694,17.276-4.226l-.661-9.765c-8.572,1.437-21.913,3.718-31.632,5.394-6.322-3.236-16.424,1.305-13.875,10.843C403.2,162.809,403.214,162.816,403.224,162.818Z"/><path class="a" d="M431.231,189.8l-.073.028a6.528,6.528,0,0,1-3.814.247c-15.46-3.6-52.681-12.832-56.362-14.017-2.436-.784-3.76-2.622-3.139-4.414a29.676,29.676,0,0,1,6.554-8.054,15.775,15.775,0,0,1,13.28-3.882c12.834,2.229,34.523,7.278,48.288,11.183a6.539,6.539,0,0,1,3.953,3.08,15.886,15.886,0,0,1,1.714,5.544,6.6,6.6,0,0,1-2.935,6.3A43.4,43.4,0,0,1,431.231,189.8Z"/><path class="b" d="M430.7,187.874c-2.134.82-4.445-.1-6.569-.6q-3.119-.739-6.234-1.492-7.37-1.776-14.73-3.59c-8.77-2.159-17.539-4.325-26.281-6.6-1.233-.32-2.467-.643-3.7-.979a7.079,7.079,0,0,1-2.99-1.206c-.869-.8-.353-1.32.2-2.2a26.2,26.2,0,0,1,3.509-4.362,16.46,16.46,0,0,1,7.982-5c2.91-.7,5.712-.141,8.589.4q4.13.777,8.239,1.65,9.47,1.99,18.872,4.286,5.082,1.233,10.143,2.552,2.251.588,4.5,1.2a16.726,16.726,0,0,1,4.414,1.424,6.732,6.732,0,0,1,2.565,4.2,6.836,6.836,0,0,1,.132,4.506c-.7,1.659-2.332,2.507-3.805,3.368a36.288,36.288,0,0,1-4.833,2.441,2.061,2.061,0,0,0-1.4,2.46,2.014,2.014,0,0,0,2.46,1.4,41.966,41.966,0,0,0,4.85-2.31,20.331,20.331,0,0,0,4.5-3.013c2.8-2.766,2.925-6.532,1.888-10.116-1.042-3.6-3.118-6.348-6.816-7.415-3.052-.881-6.128-1.682-9.2-2.474q-10.171-2.62-20.428-4.9c-6.145-1.371-12.323-2.779-18.545-3.756a18.239,18.239,0,0,0-10.642,1.475,24.977,24.977,0,0,0-8.624,7.443c-1.076,1.369-2.477,3-2.911,4.731a4.974,4.974,0,0,0,1.211,4.488,9.125,9.125,0,0,0,4.635,2.46c8.226,2.285,16.545,4.264,24.83,6.316,9.985,2.474,19.965,5,30,7.273a8.973,8.973,0,0,0,5.254-.2,2.059,2.059,0,0,0,1.4-2.461A2.015,2.015,0,0,0,430.7,187.874Z"/><path class="b" d="M378.311,188.97c-.083.112-.167.222-.252.332l.313-.405c-1.141,1.474-2.353,2.891-3.507,4.354a2.183,2.183,0,0,0-.585,1.415,2.039,2.039,0,0,0,.585,1.414,2.019,2.019,0,0,0,1.415.586,1.934,1.934,0,0,0,1.414-.586c1.344-1.707,2.772-3.348,4.071-5.091a2.009,2.009,0,0,0,.2-1.541,2,2,0,0,0-2.46-1.4l-.478.2a2.019,2.019,0,0,0-.717.717Z"/><path class="b" d="M393.193,194.226c-.058.171-.124.338-.194.5l.2-.478c-.681,1.6-1.566,3.114-2.3,4.693a2.164,2.164,0,0,0-.2,1.542,2.039,2.039,0,0,0,.919,1.195,2.017,2.017,0,0,0,1.541.2,1.955,1.955,0,0,0,1.195-.919c.452-.971.95-1.921,1.433-2.877a21.828,21.828,0,0,0,1.263-2.8,2,2,0,0,0-3.857-1.063Z"/><path class="b" d="M406.987,198.813c-.187,2-.359,4-.588,6a2,2,0,0,0,.586,1.414,2,2,0,0,0,2.828,0,2.308,2.308,0,0,0,.586-1.414c.229-2,.4-4,.588-6a2,2,0,0,0-.585-1.414,2,2,0,0,0-2.829,0,2.27,2.27,0,0,0-.586,1.414Z"/><path class="b" d="M404.788,160.035c0-.241,0-.482.016-.724.007-.12.1-.777.023-.335a8.661,8.661,0,0,1,.336-1.374c.034-.1.073-.2.109-.305.1-.278-.14.3-.017.034.088-.192.18-.382.282-.567s.207-.363.321-.538c.073-.113.478-.637.188-.286a9.325,9.325,0,0,1,.842-.9c.15-.14.307-.272.465-.4-.35.292.164-.116.277-.192a10.027,10.027,0,0,1,1.069-.627c.162-.082.326-.159.492-.233-.452.2.259-.093.394-.138a10.685,10.685,0,0,1,1.2-.335c.205-.045.41-.079.616-.116.1-.018.389-.04-.067.008.13-.014.26-.028.39-.038a10.888,10.888,0,0,1,1.171-.031c.208.006.414.022.622.036.59.039-.187-.065.392.051a11.491,11.491,0,0,1,1.2.294c.172.054.341.117.511.177.063.022.368.153.118.044-.269-.117.13.065.182.091a12.062,12.062,0,0,1,1.067.622c.448.291-.021-.052.217.157.2.174.395.346.58.533.15.152.291.312.431.472.242.276.035.036-.009-.023.1.131.193.267.284.4.139.211.268.429.388.652.048.087.367.763.209.39a8.915,8.915,0,0,1,.715,3.318c.121,2.563,4.121,2.578,4,0-.235-5.02-3.034-9.5-8.075-10.822a12.57,12.57,0,0,0-12.161,3.374,10.656,10.656,0,0,0-2.783,7.333c.015,2.573,4.015,2.579,4,0Z"/><path class="b" d="M418.153,153.8q15.534-2.677,31.077-5.3a2.017,2.017,0,0,0,1.4-2.461,2.048,2.048,0,0,0-2.461-1.4q-15.545,2.607-31.076,5.3a2.016,2.016,0,0,0-1.4,2.46,2.045,2.045,0,0,0,2.46,1.4Z"/><path class="b" d="M432.615,162.49c5.759-1.409,11.51-2.847,17.276-4.227,2.5-.6,1.443-4.456-1.063-3.857-5.766,1.38-11.518,2.818-17.277,4.227-2.5.611-1.441,4.469,1.064,3.857Z"/><path class="b" d="M431.013,175.984c-2.091,1.361-2.895,3.814-3.586,6.084a2.019,2.019,0,0,0,1.4,2.46,2.041,2.041,0,0,0,2.46-1.4c.238-.783.48-1.565.794-2.321l-.2.478a7.772,7.772,0,0,1,.942-1.693l-.313.405a4.146,4.146,0,0,1,.724-.732l-.405.312c.068-.05.136-.1.207-.143a2.116,2.116,0,0,0,.919-1.195,2.042,2.042,0,0,0-.2-1.541,2,2,0,0,0-2.736-.718Z"/><path class="a" d="M109.493,2.849V2c-8.98,0-92.62.13-102.51.12,0,4.25-.29,97.718-.37,126.314,20.017,0,83.124-.015,102.859-.017C109.463,127.727,109.49,13.836,109.493,2.849Z"/><path class="a" d="M114.048,131.663c-.007,1.883-.016,6.181-.023,8.048a3.232,3.232,0,0,1-3.234,3.223L5.3,142.913a3.231,3.231,0,0,1-3.231-3.273c.022-1.869.049-6.155.07-8.012a3.23,3.23,0,0,1,3.233-3.2c18.93,0,87.031-.013,105.444-.014A3.232,3.232,0,0,1,114.048,131.663Z"/><path class="c" d="M18.374,101.414c-.032,8.523-.052,14.388-.052,15.368,5.107,0,76.947.183,79.413.183,0-.352,0-4.411,0-10.766l-6.6-3.665c-10.179-7.041-41.7-25.351-50-25.351a23.54,23.54,0,0,0-17.658,7.595c-1.222,1.33-3.665,3.774-3.665,3.774s-.536.535-1.4,1.4C18.4,94.108,18.386,97.977,18.374,101.414Z"/><path class="d" d="M97.742,97.048c0,3.525,0,6.724,0,9.476-3.351-2.028-6.6-3.99-6.6-3.99a314.549,314.549,0,0,0-27.749-16.4l.479-.361C67.24,82.94,76.5,77.515,80.963,77.515c5.056,0,8.5,2.647,11.809,4.928.95.654,3.692,2.769,3.692,2.769l1.281.959C97.744,90.025,97.743,93.686,97.742,97.048Z"/><path class="c" d="M61.2,49.35a23.442,23.442,0,0,1,8.015,4.468c1.384,1.071,5.526,4.391,6.261,4.92a4.5,4.5,0,0,0,1.074.747c.344.092.53-.115.785-.345A12.678,12.678,0,0,0,79.9,55.564a18.2,18.2,0,0,0,1.98-5.3,14.528,14.528,0,0,0-1.346-8.576c-.23-.451-.474-.5-.924-.522a25.854,25.854,0,0,0-2.7.108l-1.552.085a9.9,9.9,0,0,1-1.564.077c.153-.166.25-.368.386-.547l.454-.6.939-1.234.908-1.194c.151-.2.3-.4.454-.6a1.952,1.952,0,0,0,.371-.587c.115-.466-.456-1.218-.69-1.615a10.579,10.579,0,0,0-2.675-2.908,15.734,15.734,0,0,0-5.315-2.7,16,16,0,0,0-4.734-.639,10.254,10.254,0,0,0-2.347.306c-.762.2-1.387.258-1.245,1.208.853,5.711,1.738,12.079.3,17.743,0,0-.244.847-.319,1.022C60.47,49.136,61.2,49.35,61.2,49.35Z"/><path class="b" d="M8.613,128.43q.032-11.508.067-23.015l.093-30.966.1-32.044q.039-13.124.077-26.248c.013-4.505.252-9.076.036-13.577-.007-.153,0-.307,0-.46l-2,2q18.239.018,36.479-.036Q68.929,4.051,94.4,4.016q7.548-.01,15.1-.016l-2-2,0,12.546L107.483,44.8l-.009,36.487-.008,31.633c0,5.082-.194,10.206,0,15.286,0,.07,0,.14,0,.21,0,2.574,4,2.578,4,0l0-12.546.007-30.258.009-36.487.007-31.633c0-5.082.195-10.206,0-15.286,0-.07,0-.14,0-.21a2.03,2.03,0,0,0-2-2Q91.578,0,73.664.043,48.1.078,22.546.109,14.764.118,6.983.12a2.029,2.029,0,0,0-2,2c0,3.846-.019,7.693-.03,11.539Q4.919,26.188,4.88,38.716q-.048,15.851-.095,31.7-.048,15.735-.095,31.47-.036,12.183-.071,24.367l-.006,2.175c-.007,2.574,3.993,2.578,4,0Z"/><path class="b" d="M95.767,13.732q0,6.765,0,13.531,0,12.373-.007,24.746,0,14.2-.01,28.409,0,12.037-.008,24.075,0,4.056,0,8.111c0,1.34-.114,2.736,0,4.073.008.094,0,.193,0,.288l2-2c-8.865,0-17.731-.041-26.6-.062q-20.607-.05-41.214-.1c-3.868-.008-7.735-.022-11.6-.022l2,2c0-3.808.024-7.616.039-11.424q.045-11.966.093-23.932.055-14.169.112-28.338.05-12.528.1-25.056.027-6.837.048-13.673v-.506l-2,2c9.484.009,18.967-.02,28.451-.036q19.176-.034,38.354-.069,6.126-.01,12.251-.016c2.574,0,2.578-4,0-4q-13.9,0-27.8.043-19.267.036-38.536.067-6.358.009-12.719.011a2.029,2.029,0,0,0-2,2c0,3.909-.024,7.819-.038,11.728q-.045,12.043-.094,24.088-.055,14.174-.112,28.347-.049,12.459-.1,24.918c-.017,4.459-.117,8.928-.047,13.388,0,.153,0,.306,0,.46a2.029,2.029,0,0,0,2,2c9.494,0,18.989.039,28.483.062l40.686.1c3.415.009,6.83.023,10.244.023a2.028,2.028,0,0,0,2-2q0-5.071,0-10.142,0-11.5.007-23.008l.009-28.306q0-12.8.008-25.609,0-7.684,0-15.368v-.8C99.767,11.158,95.767,11.154,95.767,13.732Z"/><path class="b" d="M60.672,51.278c2.976.816,5.589,2.728,7.992,4.6,1.245.97,2.458,1.981,3.694,2.963,1.031.82,2.33,2.189,3.624,2.544,1.946.535,3.243-1.244,4.265-2.6a20,20,0,0,0,2.564-4.719,16.076,16.076,0,0,0,.657-10.233c-.43-1.619-1.082-4.026-2.9-4.535-2.081-.582-4.635.108-6.767.136l1.727,3.01c.7-1,1.462-1.941,2.2-2.907.7-.909,1.637-1.9,1.589-3.113-.074-1.879-1.944-3.919-3.251-5.106a17.793,17.793,0,0,0-12.3-4.5c-1.838.074-4.714.3-5.358,2.42a8.118,8.118,0,0,0,.227,3.356c.165,1.153.315,2.308.435,3.467.423,4.065.719,8.588-.7,12.5a2.021,2.021,0,0,0,1.4,2.461c.3.082.61.171.914.259,2.476.721,3.534-3.138,1.063-3.857-.3-.089-.608-.177-.914-.259l1.4,2.46c2.131-5.865,1.051-12.754.174-18.751-.234-1.6-.655.552-.849.314.008.009,1.025-.247.974-.237a9.995,9.995,0,0,1,2.363-.128,14.221,14.221,0,0,1,4.658,1.058,12.88,12.88,0,0,1,3.409,2.014,10.233,10.233,0,0,1,1.513,1.545,10.1,10.1,0,0,1,.572.86c.113.181.269.8.277.38l.273-1.01c-1.073,1.657-2.383,3.139-3.512,4.757A2.014,2.014,0,0,0,73.8,43.433c1.053-.014,2.1-.1,3.146-.172.483-.035.967-.069,1.451-.086q.364-.016.728-.017.861.024.224-.015l-.718-.718a10.894,10.894,0,0,1,1.138,8.08,15.257,15.257,0,0,1-4.119,7.476l.882-.514-.015-.008,1.009.273A18.351,18.351,0,0,1,74.2,55.224c-1.291-1.044-2.581-2.088-3.9-3.095a25.718,25.718,0,0,0-8.564-4.708C59.249,46.739,58.188,50.6,60.672,51.278Z"/><path class="b" d="M92.152,100.807A268.7,268.7,0,0,0,64.636,84.529a155.1,155.1,0,0,0-15.181-7.168,37.4,37.4,0,0,0-5.529-1.807,19.659,19.659,0,0,0-7.661.065A25.153,25.153,0,0,0,25.1,80.594a75.712,75.712,0,0,0-6.7,6.543c-1.822,1.824,1.006,4.653,2.829,2.829,1.794-1.8,3.465-3.755,5.36-5.442a21.138,21.138,0,0,1,8.619-4.589,22.784,22.784,0,0,1,5.5-.748c.394-.006.773.01,1.164.037.351.024-.432-.083.085.011.172.032.344.06.515.094a32.631,32.631,0,0,1,5.267,1.636c10.143,3.885,19.865,9.522,29.241,15.05,4.454,2.626,8.894,5.308,13.151,8.246,2.124,1.466,4.126-2,2.019-3.454Z"/><path class="b" d="M65.287,87.186a43.526,43.526,0,0,1,6.973-4.477c2.475-1.333,5.287-2.836,8.125-3.172,5.438-.644,10.894,4.184,15.07,7.4a2.01,2.01,0,0,0,2.736-.718,2.05,2.05,0,0,0-.718-2.736c-5.081-3.917-11.048-8.844-17.917-7.838a28.8,28.8,0,0,0-9.013,3.447,47.283,47.283,0,0,0-8.085,5.264c-1.982,1.646.861,4.462,2.829,2.828Z"/><path class="b" d="M27.226,46.841c2.66,4.229,7.667,7.586,12.813,6.651,3.431-.623,6.27-3.371,5.585-7.044a5.837,5.837,0,0,0-6.89-4.6c-4.935,1.008-4.91,6.773-1.924,9.843,1.862,1.915,4.82,2.433,7.368,2.755a14.567,14.567,0,0,0,8.746-1.377c2.272-1.212.254-4.667-2.019-3.454-2.955,1.578-6.559,1.037-9.645.159a3.518,3.518,0,0,1-2.5-2.374c-.243-.786-.229-1.275.541-1.573a1.451,1.451,0,0,1,1.075-.1c-.389-.05.1.046.23.1.216.083-.063-.034-.087-.045a3.608,3.608,0,0,1,.366.2c.4.244-.047-.095.184.138.077.078.4.445.281.288a1.533,1.533,0,0,1,.327.7c.046.17.071.595.052.192a4.549,4.549,0,0,1,0,.572c-.023.3.062-.339-.005-.043a1.324,1.324,0,0,1-.063.242c-.157.344-.015.062.017,0a2.093,2.093,0,0,1-.166.3c-.213.31-.051.1,0,.034a2.683,2.683,0,0,1-.255.277,1.66,1.66,0,0,1-.306.251,4.039,4.039,0,0,1-1.418.58c-3.486.855-7.089-1.893-8.853-4.7-1.367-2.174-4.829-.169-3.454,2.019Z"/><path class="b" d="M112.048,131.663q-.012,3.655-.02,7.312c0,.754.025,1.575-.808,1.886a5.048,5.048,0,0,1-1.631.073l-7.6,0-22.543,0-53.771-.011-18.578,0c-1.1,0-2.813.338-3.045-1.147a20.064,20.064,0,0,1,.039-3.08q.017-2.024.033-4.047c.007-.766-.121-1.719.721-2.1a4.574,4.574,0,0,1,1.765-.111h3.866q25.414,0,50.828-.006l47.76-.007c1.094,0,2.908-.318,2.982,1.246.12,2.563,4.121,2.578,4,0a5.366,5.366,0,0,0-5.509-5.246c-1.271-.017-2.543,0-3.815,0h-10.2l-27.325,0-55.506.008c-2.852,0-5.809-.22-8.652.017-3.235.27-4.884,2.891-4.913,5.913-.024,2.511-.242,5.111-.048,7.614a5.36,5.36,0,0,0,5.575,4.939c1.135.011,2.271,0,3.407,0l9.362,0,54.908.01,25.318.006h8.971c1.054,0,2.118.045,3.17,0a5.4,5.4,0,0,0,5.236-5.695c.026-2.525.012-5.051.021-7.576C116.056,129.089,112.057,129.085,112.048,131.663Z"/><path class="b" d="M35.755,102.315a9.325,9.325,0,0,1,2.147-1.729,6,6,0,0,1,1.1-.532c-.01,0,.542-.171.542-.115a2.657,2.657,0,0,1-.239-.153.118.118,0,0,1-.024-.084q-.009-.165.069.194s.054.359.035.183a8.07,8.07,0,0,1-.084,1.455c-.1,1.26-.01,2.773,1.126,3.561,1.239.859,2.459.2,3.613-.451.956-.538,1.886-1.12,2.844-1.656a52.886,52.886,0,0,1,6.189-2.961,2.062,2.062,0,0,0,1.4-2.461,2.013,2.013,0,0,0-2.46-1.4A62.321,62.321,0,0,0,46.224,98.8q-1.288.675-2.541,1.415c-.415.245-.827.5-1.244.737-.231.134-.464.267-.7.4-.271.148-.684.178-.1.178l1.414.586-.18-.152.515.882a4.368,4.368,0,0,1-.026-1.958,6.43,6.43,0,0,0-.1-1.815,3.835,3.835,0,0,0-2.793-3.012c-2.729-.68-5.785,1.575-7.539,3.432s1.056,4.7,2.828,2.828Z"/><path class="b" d="M81.727,95.47q.352-.3.718-.581l-.4.313a19.728,19.728,0,0,1,4.029-2.344,2,2,0,0,0,.919-1.2,2.045,2.045,0,0,0-.2-1.542,2.021,2.021,0,0,0-1.2-.919l-.531-.071a1.991,1.991,0,0,0-1.01.273A21.4,21.4,0,0,0,78.9,92.641a2.012,2.012,0,0,0-.585,1.414A2.04,2.04,0,0,0,78.9,95.47a2.013,2.013,0,0,0,1.415.585,2.245,2.245,0,0,0,1.414-.585Z"/><path class="a" d="M238.8,279.229c-9.377-6-20.5-7.8-31.687-6.971-11.058.821-25.158,2.092-34,6.578-3.333,15.509-9.923,53.277-12.775,68.357,25.975-6.55,57.177-6.55,78.468,1.846,21.55-8.234,50.974-8.234,78.457-1.846-2.852-15.08-9.442-52.848-12.774-68.357-8.844-4.486-22.512-6.4-33.571-7.224C259.737,270.781,249.311,273.336,238.8,279.229Z"/><path class="a" d="M237.583,155.573h-1.669a4.267,4.267,0,0,0-1.46-.826c-7.514-3.022-13.784-7.632-16.529-11.323a20.5,20.5,0,0,0-4.744,6.659c3.626,14.409,9.472,29.735,14.164,43.631l10.382,30.743,10.381-30.743c4.647-13.76,10.424-28.924,14.056-43.209-1.527-2.946-2.449-4.771-4.962-7.081-2.746,3.691-9.015,8.3-16.529,11.323a4.274,4.274,0,0,0-1.461.826Z"/><path class="a" d="M276.712,90.363a6.322,6.322,0,0,1,4.57-1.673,5.866,5.866,0,0,1,5.269,2.927c1.79,3.1,1.715,8.827.513,12.367-.851,2.507-2.246,6.342-5.607,9.092a6.966,6.966,0,0,1-5.372,1.551l-.6-.1c-.523,1.836-1.288,3.755-1.575,4.627-1.27,3.448-8.011,15.12-16.707,20.507v3.765c-2.746,3.691-9.015,8.3-16.529,11.323a4.274,4.274,0,0,0-1.461.826h-3.3a4.267,4.267,0,0,0-1.46-.826c-7.514-3.022-13.784-7.632-16.529-11.323V139.9a37.322,37.322,0,0,1-10.171-8.844,42.873,42.873,0,0,1-8.949-16.484,6.892,6.892,0,0,1-5.634-1.5c-3.361-2.75-4.755-6.585-5.607-9.092-1.2-3.54-1.277-9.262.513-12.367a5.866,5.866,0,0,1,5.269-2.927,6.319,6.319,0,0,1,4.57,1.673S194.713,55.1,237.157,55.1C279.157,55.1,276.712,90.363,276.712,90.363Z"/><path class="e" d="M192.314,59.126a47.272,47.272,0,0,1,16.7-21.883A46.729,46.729,0,0,1,237.2,28.357c9.813,0,17.9,2.326,24.7,6.563,9.706-12.489,24.935-6.274,26.792,3.409,1.2,6.238,1.56,10.092,4.415,15.728,2.939,5.8,5.4,6.529,10.51,8.93C299.48,69.1,294.035,74.3,284.835,72.1q.065.86.1,1.749a48.777,48.777,0,0,1-1.817,15.116,7.772,7.772,0,0,0-1.838-.273,6.333,6.333,0,0,0-4.428,1.546c-6.474-1.552-13.168-8-17.044-12.949-3.787-4.833-6.156-10.639-8.156-17.194-6.068,6.833-16.349,12.432-27.8,18.7a156.956,156.956,0,0,1-19.283,7.545l-6.655,4.02a6.319,6.319,0,0,0-4.57-1.673,7.544,7.544,0,0,0-2.015.328,50.768,50.768,0,0,1-1.863-15.171,49.714,49.714,0,0,1,1.983-12.109Q191.849,60.4,192.314,59.126Z"/><path class="f" d="M179.655,252.284l.883-.46c-2.36-3.546-4.354-6.4-6-8.468-3.287-4.141-4.772-4.715-2.308-9.778a102.706,102.706,0,0,1,7.5-11.652l1.721-1.905c.582,5.541,1.224,10.7,1.86,14.155.986,11.885,1.251,11.536,2.085,23.642,23.016-.02,80.929-.041,103.409-.063.805-11.477,1.077-11.233,2.046-22.912.578-3.141,1.161-7.7,1.7-12.674l2.5,2.776a98.88,98.88,0,0,1,9.069,14.5c.621,3.279-2.677,11.33-4.627,13.93,0,0-1.309,1.008-2.454,1.862l31.855,12.494a80.65,80.65,0,0,0,9.053-17.218c1.594-4.287,1.048-9.536-.081-13.418-2.937-10.1-15.673-35.618-18.745-42.731-1.55-3.589-3.567-7.869-5.728-11.856a39.888,39.888,0,0,0-18.522-17.263c-5.405-2.472-15.8-7.547-24.395-11.773a42.525,42.525,0,0,0-7.549-6.129c-3.544,15.192-9.839,31.59-14.83,46.37l-10.381,30.743-10.382-30.743c-4.991-14.78-11.286-31.178-14.83-46.37a40.083,40.083,0,0,0-6.166,4.79c-9.775,4.322-22.4,10.015-28.834,13.264-6.628,3.348-11.444,8.222-15.833,14.97-2.253,3.465-3.974,7.468-5.87,11.067-3.4,6.448-13.74,24.4-17.192,32.967-1.955,4.85-4.011,9.818-5.008,15.281-1.7,9.3,9.063,24.353,17.734,27.37Z"/><path class="b" d="M239.812,277.5c-9.721-6.15-21.355-8.057-32.7-7.244-10.341.742-21.233,1.475-31.029,5.128-1.038.388-2.066.813-3.07,1.28a3.259,3.259,0,0,0-1.629,1.161,4.628,4.628,0,0,0-.4,1.409q-.483,2.283-.938,4.573-1.14,5.691-2.205,11.4c-1.665,8.823-3.271,17.657-4.872,26.491-1.509,8.323-2.991,16.652-4.561,24.963a2.026,2.026,0,0,0,2.46,2.46,155.67,155.67,0,0,1,30.848-4.471,134.839,134.839,0,0,1,30.33,1.807,91.154,91.154,0,0,1,13.372,3.455c.936.324,1.9.819,2.855,1.056,1.208.3,2.777-.642,3.918-1.028q3.32-1.124,6.724-1.975a121.627,121.627,0,0,1,30.648-3.349,171.113,171.113,0,0,1,37.166,4.5,2.027,2.027,0,0,0,2.46-2.46c-3.024-16.008-5.805-32.062-8.8-48.077q-1.108-5.931-2.261-11.853-.48-2.451-.978-4.9c-.335-1.643-.372-3.993-1.963-4.876-4.32-2.4-9.51-3.648-14.3-4.665a141.407,141.407,0,0,0-16.064-2.351,64.321,64.321,0,0,0-18.646.572,63.037,63.037,0,0,0-18.387,6.99c-2.249,1.252-.234,4.708,2.019,3.454a55.749,55.749,0,0,1,25.864-7.485,94.021,94.021,0,0,1,12.786.851,119.182,119.182,0,0,1,12.567,2.089,54.459,54.459,0,0,1,12.452,4.152l-.919-1.195c3.948,18.41,7.049,37.012,10.414,55.535.777,4.275,1.553,8.551,2.36,12.822l2.461-2.461c-20.83-4.813-42.943-6.452-64.051-2.452a91.824,91.824,0,0,0-15.469,4.3h1.063a101.853,101.853,0,0,0-29-6.167,155.163,155.163,0,0,0-32.547.936,159.319,159.319,0,0,0-17.983,3.385l2.46,2.461c3.48-18.421,6.642-36.9,10.166-55.314.833-4.355,1.678-8.708,2.608-13.043l-.919,1.195c7.186-3.592,15.649-4.663,23.545-5.488,8.666-.906,17.464-1.711,26.061.168a43.532,43.532,0,0,1,14.063,5.713C239.975,282.336,241.984,278.876,239.812,277.5Z"/><path class="b" d="M236.858,287.967c0,15.779-.162,31.558-.164,47.337,0,2.574,4,2.578,4,0,0-15.779.163-31.558.164-47.337,0-2.574-4-2.578-4,0Z"/><path class="b" d="M182.265,250.814c-1.927-2.89-3.879-5.769-6.02-8.506-.826-1.057-1.756-2.046-2.531-3.14a2.4,2.4,0,0,1-.679-2.044c.356-2.425,2.169-4.854,3.446-6.874,1.576-2.494,3.23-4.944,4.986-7.314a2.014,2.014,0,0,0-.717-2.737,2.048,2.048,0,0,0-2.737.718c-1.894,2.556-3.676,5.2-5.357,7.9-1.515,2.434-3.26,5.134-3.6,8.038-.332,2.871,1.613,4.913,3.306,6.97a109.868,109.868,0,0,1,6.445,9c1.421,2.132,4.887.131,3.454-2.019Z"/><path class="b" d="M147.615,239.72a48.7,48.7,0,0,1,16.442-1.1,2.012,2.012,0,0,0,2-2,2.045,2.045,0,0,0-2-2,51.994,51.994,0,0,0-17.5,1.242c-2.5.6-1.442,4.461,1.063,3.857Z"/><path class="b" d="M293.647,226.359a68.868,68.868,0,0,1,5.279,7.877q1.183,2,2.3,4.036a13.579,13.579,0,0,0,.863,1.589c.421.563.175-.219.114.186-.031.206.008.472,0,.682a20.363,20.363,0,0,1-1.634,6.179,23.507,23.507,0,0,1-2.788,5.458l.718-.717q-1.221.939-2.454,1.862a2.063,2.063,0,0,0-.718,2.737,2.014,2.014,0,0,0,2.736.717,14.209,14.209,0,0,0,3.4-2.9,21.947,21.947,0,0,0,1.764-3.246,31.965,31.965,0,0,0,2.807-8.547,6.633,6.633,0,0,0-.327-4.132c-.81-1.577-1.7-3.124-2.581-4.659a79.867,79.867,0,0,0-6.644-9.953,2.013,2.013,0,0,0-2.829,0,2.049,2.049,0,0,0,0,2.828Z"/><path class="b" d="M312.517,240.047c-.59.258-.06.031.071-.015q.237-.083.477-.151c.343-.1.69-.176,1.04-.243.185-.035.371-.063.557-.095q.334-.048-.1.011l.293-.035q.6-.069,1.2-.107a46.924,46.924,0,0,1,4.919-.02,2.016,2.016,0,0,0,2-2,2.043,2.043,0,0,0-2-2c-3.476-.135-7.234-.218-10.479,1.2a2.007,2.007,0,0,0-.718,2.737,2.062,2.062,0,0,0,2.737.717Z"/><path class="b" d="M74.262,259.917q19.8,0,39.61-.045,4.534,0,9.07-.006c2.573,0,2.578-4,0-4q-20.17,0-40.341.044-4.17,0-8.339.007c-2.574,0-2.578,4,0,4Z"/><path class="b" d="M351.682,259.917q19.8,0,39.61-.045,4.535,0,9.07-.006c2.573,0,2.578-4,0-4q-20.171,0-40.341.044-4.17,0-8.339.007c-2.574,0-2.578,4,0,4Z"/><path class="b" d="M197.664,259.818q16.988-.015,33.974-.023l38.472-.024L288,259.758c2.574,0,2.578-4,0-4q-17.1.013-34.205.023l-38.408.024-17.722.013c-2.574,0-2.578,4,0,4Z"/><path class="b" d="M253.6,220.239a337.429,337.429,0,0,0,24.675-44.966,4.537,4.537,0,0,0,.5-3.316,7.252,7.252,0,0,0-2.1-2.775c-1.825-1.839-3.734-3.592-5.658-5.326L270.6,167q2.655-1.469,5.314-2.929c1.9-1.05,2.93-2.329,1.844-4.512a24.06,24.06,0,0,0-2.975-4.328c-.612-.751-1.254-1.478-1.918-2.184s-1.324-1.574-2.384-1.574l1.414.586a43.736,43.736,0,0,0-7.945-6.443,2.017,2.017,0,0,0-2.938,1.195,303.971,303.971,0,0,1-8.938,29.371q-5.19,14.991-10.291,30.009-3,8.87-5.991,17.74c-.825,2.445,3.037,3.494,3.857,1.064q5.262-15.588,10.533-31.173c3.316-9.791,6.888-19.495,10.02-29.348,1.741-5.479,3.344-11,4.667-16.6l-2.938,1.195a32.641,32.641,0,0,1,4.152,3.046q1.027.879,2.007,1.813c.7.666,1.338,1.544,2.4,1.544l-1.414-.586a40.963,40.963,0,0,1,3.122,3.475c.412.524.8,1.067,1.165,1.624a10.523,10.523,0,0,1,.9,1.387l.273-1.009q.45-.436-.231.028l-.817.451-1.635.9q-1.635.9-3.27,1.8a2.016,2.016,0,0,0-.4,3.141c1.516,1.367,3.022,2.745,4.486,4.168a12.073,12.073,0,0,1,2.152,2.164c.209.373.289-.272-.091.451-.251.477-.446.993-.669,1.484q-2.476,5.466-5.174,10.829c-3.525,7-7.344,13.856-11.374,20.582q-3.588,5.987-7.363,11.859c-1.391,2.175,2.07,4.183,3.454,2.018Z"/><path class="b" d="M239.651,223.928q-5.261-15.585-10.522-31.171c-3.3-9.754-6.86-19.421-9.983-29.235-1.757-5.517-3.361-11.08-4.7-16.714a2.018,2.018,0,0,0-2.938-1.195,44.04,44.04,0,0,0-11.642,10.647c-1.2,1.571-3.581,4.275-2.275,6.339.654,1.033,2.075,1.537,3.1,2.105q2.076,1.146,4.152,2.293l-.4-3.141c-1.687,1.527-3.364,3.066-4.986,4.662-1.413,1.391-3.276,2.881-2.879,5.1a12.727,12.727,0,0,0,1.2,2.935q.735,1.583,1.484,3.158,1.374,2.895,2.8,5.766,5.667,11.434,12.2,22.409,3.72,6.213,7.729,12.244c1.416,2.136,4.882.135,3.454-2.018a327.855,327.855,0,0,1-23.222-41.467c-.494-1.048-.924-2.16-1.481-3.176-.269-.49-.377-.2.054-.621.392-.382.767-.783,1.155-1.169,1.726-1.715,3.518-3.361,5.321-4.994a2.015,2.015,0,0,0-.405-3.141q-1.638-.908-3.278-1.81l-1.53-.845-.875-.483q-.72-.492-.259-.044l.273,1.009a10.139,10.139,0,0,1,.794-1.23c.39-.6.809-1.194,1.254-1.76a39.689,39.689,0,0,1,3.164-3.522,39.2,39.2,0,0,1,7.117-5.791l-2.938-1.195c2.382,9.987,5.6,19.74,8.962,29.435q5.178,14.957,10.26,29.944l5.988,17.741c.819,2.426,4.684,1.385,3.857-1.064Z"/><path class="b" d="M252,169.549a78.543,78.543,0,0,0,9.386-13.729q.969-1.834,1.85-3.713a4.081,4.081,0,0,0,.694-2.255,6.384,6.384,0,0,0-.856-1.924,22.457,22.457,0,0,0-4.456-5.918,2.038,2.038,0,0,0-3.141.4,27,27,0,0,1-6.731,5.856,50.28,50.28,0,0,1-5.049,2.924,53.992,53.992,0,0,0-5.237,2.431c-3.284,2.144.566,5.155,2.174,6.83,2.869,2.989,5.86,5.933,8.538,9.094,1.666,1.967,4.483-.874,2.828-2.828-2.166-2.557-4.607-4.864-6.885-7.319-.961-1.036-1.922-2.069-2.925-3.066l-.845-.842c-.1-.1-.183-.2-.274-.3.448.49-.021-.06-.16-.31l.273,1.009.03-.322-.586,1.415a10.338,10.338,0,0,1,2.7-1.211q1.4-.623,2.769-1.326a49.465,49.465,0,0,0,5.316-3.167,31.771,31.771,0,0,0,7.513-6.851l-3.141.405a22.1,22.1,0,0,1,4.448,6.289v-2.019a78.181,78.181,0,0,1-11.066,17.613C247.526,168.681,250.342,171.525,252,169.549Z"/><path class="b" d="M225.957,166.721a78.207,78.207,0,0,1-11.067-17.613v2.019a22.1,22.1,0,0,1,4.449-6.289l-3.141-.405a31.732,31.732,0,0,0,7.513,6.851,49.367,49.367,0,0,0,5.316,3.167q1.364.7,2.769,1.326a10.331,10.331,0,0,1,2.7,1.211l-.586-1.415.03.322.273-1.009c-.1.179-.686.849-.159.31-.095.1-.177.2-.274.3-.253.245-.5.5-.749.747-1.036,1.028-2.029,2.091-3.022,3.161-2.278,2.455-4.718,4.762-6.885,7.319-1.654,1.953,1.162,4.8,2.829,2.828,2.678-3.161,5.668-6.105,8.537-9.094,1.609-1.675,5.467-4.681,2.175-6.83a53.538,53.538,0,0,0-5.238-2.431,50.088,50.088,0,0,1-5.049-2.924,27.015,27.015,0,0,1-6.73-5.856,2.039,2.039,0,0,0-3.142-.4,22.174,22.174,0,0,0-4.369,5.758,9.318,9.318,0,0,0-.906,1.818,3.361,3.361,0,0,0,.566,2.327q.927,1.974,1.941,3.907a78.6,78.6,0,0,0,9.386,13.729C224.784,171.524,227.6,168.682,225.957,166.721Z"/><path class="b" d="M228.747,235.1a4.842,4.842,0,0,1,.564.545c.242.27-.087-.147-.115-.153.026,0,.087.127.1.15.075.114.144.232.208.353.045.086.222.483.073.132s.022.086.054.19a5.15,5.15,0,0,1,.172.8l-.071-.531a5.4,5.4,0,0,1,0,1.283l.072-.531a5.484,5.484,0,0,1-.146.719c-.029.1-.066.2-.1.305-.128.415.2-.413.047-.1a5.168,5.168,0,0,1-.358.637c-.1.147-.317.3.094-.111-.086.086-.159.188-.245.275s-.2.166-.286.257c.353-.368.257-.192.092-.079a5.925,5.925,0,0,1-.685.387c-.331.167.441-.159.111-.048-.126.042-.25.088-.378.126a5.834,5.834,0,0,1-.783.167l.531-.071a5.763,5.763,0,0,1-1.5,0l.532.072a5.428,5.428,0,0,1-.679-.144c-.126-.036-.249-.081-.374-.125-.326-.113.441.221.118.046-.2-.11-.4-.223-.591-.35-.3-.2.363.35.064.037-.076-.08-.158-.152-.233-.234s-.117-.145-.182-.212c.432.45.146.188.044.027-.116-.183-.2-.379-.3-.569.279.513.126.305.066.135-.041-.116-.077-.234-.109-.353a5.481,5.481,0,0,1-.125-.635l.072.532a5.488,5.488,0,0,1,.008-1.391l-.072.532a5.661,5.661,0,0,1,.144-.682c.03-.1.062-.208.1-.31.168-.476-.178.35-.027.049a6,6,0,0,1,.313-.567c.05-.078.111-.15.159-.229-.318.53-.149.189-.018.047.074-.08.15-.159.231-.232.332-.3-.361.234-.052.035a5.966,5.966,0,0,1,.606-.36c.47-.233-.339.109-.013,0,.1-.033.191-.069.288-.1a5.576,5.576,0,0,1,.8-.177l-.532.071a5.609,5.609,0,0,1,1.424-.009l-.531-.072a5.827,5.827,0,0,1,1.126.285c.227.08-.449-.212-.153-.061.09.046.179.09.267.14.158.09.7.507.178.088a2.175,2.175,0,0,0,1.415.585,2,2,0,0,0,1.414-3.414,7.325,7.325,0,0,0-2.1-1.213,6.832,6.832,0,0,0-2.017-.375,7.033,7.033,0,0,0-3.973,1.016,6.832,6.832,0,0,0-2.861,7.147,6.261,6.261,0,0,0,1.793,3.3,6.612,6.612,0,0,0,3.991,1.692,6.751,6.751,0,0,0,6.639-3.506c1.239-2.628.9-6.141-1.468-8.06a2.161,2.161,0,0,0-1.414-.586,2,2,0,0,0-1.415,3.415Z"/><path class="b" d="M199.33,88.948a8.861,8.861,0,0,0-9.633-1.425,8.475,8.475,0,0,0-4.43,5.8c-1.521,5.787-.057,12.41,3.177,17.376,2.218,3.406,5.756,6.49,10.1,5.927a2.066,2.066,0,0,0,2-2,2.011,2.011,0,0,0-2-2c-3.487.452-5.875-2.405-7.389-5.2a19.535,19.535,0,0,1-2.389-7.535c-.2-2.478-.2-5.591,1.317-7.707.207-.288-.044.021.209-.241a4.006,4.006,0,0,1,.53-.489,4.069,4.069,0,0,1,1.513-.641,4.661,4.661,0,0,1,4.168.961c1.915,1.709,4.754-1.111,2.828-2.829Z"/><path class="b" d="M278.126,91.777a4.649,4.649,0,0,1,4.168-.961,4.42,4.42,0,0,1,2.2,1.293c1.587,2.08,1.58,5.31,1.373,7.785-.4,4.825-3.771,13.512-9.778,12.733a2.01,2.01,0,0,0-2,2,2.052,2.052,0,0,0,2,2c7.056.915,11.351-6.86,13.051-12.566,1.473-4.944,1.545-12.71-3.209-15.981a8.815,8.815,0,0,0-10.629.868c-1.925,1.718.912,4.539,2.828,2.829Z"/><path class="b" d="M274.034,111.815a24.323,24.323,0,0,1-1.269,4.612c-.213.6-.437,1.2-.651,1.806-.059.165-.116.33-.174.495-.134.383,0,.012-.023.069a39.927,39.927,0,0,1-2.667,4.946,49.1,49.1,0,0,1-10.442,12.338,19.675,19.675,0,0,1-7.888,4.1c-2.507.583-1.446,4.441,1.063,3.857,5.924-1.378,10.859-5.657,14.753-10.142a54.633,54.633,0,0,0,8.416-12.589,31.493,31.493,0,0,0,2.739-8.428,2.067,2.067,0,0,0-1.4-2.46,2.014,2.014,0,0,0-2.46,1.4Z"/><path class="b" d="M196.3,112.72a46.264,46.264,0,0,0,10.736,20.572c5.082,5.846,11.59,10.454,19.385,11.615a2.065,2.065,0,0,0,2.46-1.4,2.015,2.015,0,0,0-1.4-2.46c-7.2-1.072-12.926-5.188-17.62-10.587a42.109,42.109,0,0,1-9.707-18.807c-.539-2.516-4.4-1.451-3.857,1.064Z"/><path class="b" d="M285.146,89.11a54.8,54.8,0,0,0,1.269-20.946,49.066,49.066,0,0,0-5.446-16.889,41.374,41.374,0,0,0-9.4-11.642,58.8,58.8,0,0,0-13.388-8.977,52.186,52.186,0,0,0-38.065-1.491,50.013,50.013,0,0,0-24.438,19.008c-8.146,11.979-9.985,27.056-6.394,40.937.644,2.491,4.5,1.435,3.857-1.063-3.019-11.671-1.942-24.182,4.06-34.754a46.154,46.154,0,0,1,20.32-18.779A48.442,48.442,0,0,1,252.8,32.788a47.234,47.234,0,0,1,13.513,7.729,41.08,41.08,0,0,1,9.291,9.625,43.932,43.932,0,0,1,6.568,16.646,50.1,50.1,0,0,1-.884,21.259c-.618,2.5,3.238,3.565,3.857,1.063Z"/><path class="b" d="M235.735,224.989a49.147,49.147,0,0,1,1.743,8.4,43.1,43.1,0,0,1-.039,7.4,132.164,132.164,0,0,1-2.511,16.064c-.511,2.513,3.343,3.588,3.857,1.064a140.82,140.82,0,0,0,2.654-17.128,48.14,48.14,0,0,0-1.847-16.863c-.687-2.478-4.547-1.426-3.857,1.063Z"/><path class="a" d="M200.533,278.774c9.021-3.479.718-15.329-2.869-20.3-4.363-6.041-15.526-6.35-21.02-6.411-4.859-.054-12.018.582-15.966,3.744-2.755,2.212-6.744,5.908-8.577,10.273a11.866,11.866,0,0,0-.476,1.387c-.756,2.531,2.573,9.224,3.96,13.454,1.077,3.288,1.863,6.673,3.453,9.758,1.873,3.608,8.682,11.582,12.62,5.781l1.591-2.026c4.3,3.388,9.358,4.913,11.163-2.166,2.4.917,4.919.643,7.378-1.78Z"/><path class="b" d="M165.342,288.547a27.072,27.072,0,0,0,6.89,7.613c2.747,2.121,6.485,4.122,9.958,2.545,2.073-.942,3.228-3.011,3.919-5.082a2,2,0,0,0-3.857-1.063,5.12,5.12,0,0,1-.546,1.266,6.393,6.393,0,0,1-.391.611c.262-.361-.157.162-.221.225-.094.1-.6.444-.174.177-.161.1-.337.19-.493.3-.243.162.337-.057-.172.054-.133.028-.742.118-.151.065a6.1,6.1,0,0,1-1.147-.007c.573.055-.095-.035-.212-.063-.205-.048-.407-.107-.607-.172s-.411-.144-.614-.225c.448.18-.219-.111-.3-.149-.4-.2-.786-.418-1.164-.653a21,21,0,0,1-4.321-3.645q-.505-.533-.984-1.09-.23-.267-.452-.54c-.052-.064-.5-.636-.21-.256a18.347,18.347,0,0,1-1.3-1.925c-1.289-2.228-4.747-.216-3.454,2.019Z"/><path class="b" d="M172.533,283.153c2.408,3.62,5.12,7.315,8.789,9.751a10.076,10.076,0,0,0,5.769,1.848A9.321,9.321,0,0,0,193.2,291.9c1.86-1.787-.971-4.613-2.829-2.828a6.889,6.889,0,0,1-2.012,1.4,3.727,3.727,0,0,1-1.78.268c-.114,0-.459-.044-.176,0a5.922,5.922,0,0,1-.6-.126c-.2-.052-.4-.113-.6-.18-.052-.018-.571-.23-.313-.116a11.03,11.03,0,0,1-2.12-1.271c-2.681-2.006-4.887-5.063-6.785-7.917a2.046,2.046,0,0,0-2.736-.717,2.02,2.02,0,0,0-.718,2.736Z"/><path class="b" d="M169.931,295.454a2.779,2.779,0,0,1-1.2.989,2.118,2.118,0,0,1-1.5-.139,10.12,10.12,0,0,1-3.546-2.645c-2.782-2.914-4.08-6.441-5.234-10.249-1.253-4.134-3.047-8.06-4.326-12.178a13.627,13.627,0,0,1-.579-2.329,5.256,5.256,0,0,1-.02-.769c.025-.349-.054.263.01-.045a6.426,6.426,0,0,1,.234-.777,17.51,17.51,0,0,1,3.692-5.759c2.754-3.066,5.7-5.51,9.749-6.532A41.442,41.442,0,0,1,178.4,254.1c6.153.155,14.134.618,18.042,6.093a39.4,39.4,0,0,1,5.409,9.392,9.472,9.472,0,0,1,.693,4.381A3.774,3.774,0,0,1,200,276.845a2.063,2.063,0,0,0-1.4,2.46,2.012,2.012,0,0,0,2.46,1.4,8.607,8.607,0,0,0,4.6-3.684,8.723,8.723,0,0,0,.792-5.47c-.55-3.932-2.679-7.6-4.83-10.864a40.173,40.173,0,0,0-3.09-4.3,14.363,14.363,0,0,0-4.979-3.535,35.778,35.778,0,0,0-12.581-2.646,55.422,55.422,0,0,0-12.636.5,22.646,22.646,0,0,0-7.016,2.288,24.961,24.961,0,0,0-5.37,4.342c-3.212,3.187-7.078,7.8-6.271,12.633a33.424,33.424,0,0,0,2.093,6.512c.9,2.288,1.77,4.562,2.485,6.915,1.576,5.183,3.292,10.037,7.327,13.825a11.187,11.187,0,0,0,5.64,3.194c2.613.416,4.675-.866,6.155-2.94a2.017,2.017,0,0,0-.717-2.737,2.044,2.044,0,0,0-2.737.718Z"/><path class="b" d="M195.372,276.752c.745,1.351,9.665,17.959,13.695,24.852a2.785,2.785,0,0,0,3.858.969h0a2.784,2.784,0,0,0,1.051-3.613c-5.718-11.572-25.1-49.272-30.155-57.868-1.017-1.732-2.057-1.77-3.14-1.256a36.437,36.437,0,0,0-3.35,1.857c-1.182.786-1.574,1.708-.959,2.842,2.772,5.111,7.2,11.833,10.556,17.045,2.833,4.394,6.028,10.522,8.444,15.172"/><path class="a" d="M196.413,278.644c2.215,3.082,3.788,6.2,6.228,9.022,2.1,2.435,4.463,4.655,4.5,6.292.074,3.761-2.729,4.72-5.908,2.7a53.38,53.38,0,0,1-6.677-5.137c-4.726-4.41-9.574-10.006-10.852-10.819"/><path class="b" d="M194.686,279.653c2.305,3.244,4.2,6.749,6.829,9.757a24.242,24.242,0,0,1,3.4,4.095,2.124,2.124,0,0,1-.135,2.038.838.838,0,0,1-.747.144,4.537,4.537,0,0,1-1.8-.759c-1.059-.658-2.072-1.4-3.068-2.151a70.084,70.084,0,0,1-8.108-7.54c-2.008-2.077-3.938-4.635-6.353-6.265-2.14-1.444-4.144,2.02-2.019,3.454.244.165-.106-.09-.124-.106.076.065.157.127.23.2.185.175.376.343.56.52.5.48.984.978,1.466,1.476,1.326,1.368,2.633,2.755,3.961,4.121a71,71,0,0,0,9.477,8.411c2.4,1.718,5.61,3.771,8.54,1.953a5.43,5.43,0,0,0,2.317-4.367c.151-1.95-.864-3.477-2.038-4.933-1.518-1.884-3.254-3.56-4.642-5.55-1.488-2.135-2.79-4.391-4.3-6.512a2.055,2.055,0,0,0-2.737-.718,2.016,2.016,0,0,0-.717,2.736Z"/><path class="b" d="M228.432,178.871c1.426,1.061,2.806,2.183,4.231,3.246.738.551,1.487,1.088,2.259,1.59a6.048,6.048,0,0,0,2.8,1.337,5.773,5.773,0,0,0,2.683-1.259c.774-.5,1.523-1.032,2.261-1.58,1.466-1.09,2.883-2.243,4.349-3.334a2.062,2.062,0,0,0,.717-2.736,2.014,2.014,0,0,0-2.736-.717c-2.717,2.021-5.285,4.289-8.283,5.9h2.019c-3-1.61-5.567-3.878-8.284-5.9a2.012,2.012,0,0,0-2.736.717,2.046,2.046,0,0,0,.717,2.736Z"/><path class="b" d="M250.24,58.678c-4.991,5.56-11.573,9.487-17.994,13.169a136.26,136.26,0,0,1-17.078,8.572c-3.66,1.463-7.392,2.744-11.129,4-2.428.814-1.387,4.678,1.064,3.857,5.91-1.979,11.723-4.127,17.408-6.684,3.573-1.606,6.968-3.574,10.376-5.5,3.676-2.079,7.322-4.227,10.8-6.627a52.452,52.452,0,0,0,9.381-7.951c1.716-1.911-1.1-4.749-2.828-2.829Z"/><path class="b" d="M264.15,35.32c2.729-3.065,6.322-5.3,10.521-5.382a12.818,12.818,0,0,1,9.062,3.487,10.607,10.607,0,0,1,2.492,3.561c.84,2.037,1,4.4,1.4,6.548a39.029,39.029,0,0,0,4.862,13.52,15.775,15.775,0,0,0,4.362,4.7,37.711,37.711,0,0,0,5.757,2.964l-.718-2.737a23.68,23.68,0,0,1-5.842,6.357,12.767,12.767,0,0,1-8.434,2.219c-2.568-.186-2.557,3.815,0,4a16.276,16.276,0,0,0,10.453-2.765A28.943,28.943,0,0,0,305.346,64a2.007,2.007,0,0,0-.717-2.736,44.492,44.492,0,0,1-5.327-2.676,11.38,11.38,0,0,1-3.541-3.849c-2.663-4.451-3.749-9.358-4.667-14.4a20.488,20.488,0,0,0-1.753-6.078,14.452,14.452,0,0,0-3.379-4.206,17.038,17.038,0,0,0-11-4.117,18.44,18.44,0,0,0-13.645,6.555c-1.707,1.917,1.112,4.756,2.829,2.829Z"/><path class="b" d="M249.726,60.624c2.141,6.974,4.932,13.649,9.652,19.289,4.314,5.156,9.9,10.245,16.5,12.136,2.479.711,3.537-3.148,1.063-3.857-5.927-1.7-10.869-6.494-14.73-11.107-4.255-5.085-6.7-11.251-8.623-17.524-.754-2.453-4.616-1.407-3.857,1.063Z"/><path class="b" d="M215.691,69.321a109.71,109.71,0,0,0,7.892,12.931,1.974,1.974,0,0,0,2.406.662c.672-.3,1.444-.643,2.13-.964a1.981,1.981,0,0,0,.95-2.643c-1.553-3.281-4.753-9.794-6.489-13.138a2.4,2.4,0,0,0-3.029-1.116c-.858.346-1.842.749-2.709,1.115A2.292,2.292,0,0,0,215.691,69.321Z"/><path class="b" d="M177.242,193.677c.428,7.247,1.057,14.487,1.754,21.712.8,8.3,2.075,16.529,2.859,24.82.39,4.127.844,8.246,1.177,12.378.2,2.548,4.207,2.57,4,0-.292-3.618-.675-7.227-1.029-10.839-.239-2.441-.416-4.888-.661-7.328-.171-1.7-.537-3.395-.775-5.089-1.164-8.308-1.876-16.689-2.554-25.048-.287-3.533-.562-7.068-.771-10.606-.151-2.558-4.152-2.576-4,0Z"/><path class="b" d="M292.945,194.232c-.466,7.767-1.139,15.529-1.9,23.272-.422,4.269-.865,8.54-1.468,12.788-.293,2.066-.672,4.1-.85,6.185q-.306,3.57-.664,7.136c-.487,4.816-.929,9.629-1.267,14.458-.18,2.569,3.821,2.558,4,0q.457-6.542,1.124-13.063c.433-4.213.738-8.431,1.364-12.619,1.329-8.9,2.1-17.893,2.835-26.859.308-3.764.6-7.529.829-11.3.154-2.572-3.847-2.563-4,0Z"/><path class="b" d="M151.874,265.121c-3.8-1.363-7-4.587-9.528-7.663a31.984,31.984,0,0,1-6.363-11.859c-1.335-5.063.48-9.983,2.246-14.766a122.41,122.41,0,0,1,5.462-12.638c4-7.987,8.421-15.749,12.69-23.591,2.519-4.627,4.559-9.538,7.492-13.928a40.254,40.254,0,0,1,11-11.437c4.511-2.983,9.71-5.071,14.608-7.326q8.887-4.092,17.847-8.026a2.013,2.013,0,0,0,.718-2.736,2.051,2.051,0,0,0-2.737-.718q-8.22,3.627-16.394,7.358c-4.614,2.114-9.35,4.132-13.785,6.61a41.2,41.2,0,0,0-12.58,11.259c-3.675,4.835-6.056,10.28-8.909,15.6-4.283,7.983-8.808,15.834-12.9,23.918-2.132,4.208-4.018,8.489-5.722,12.888-2.04,5.265-4.236,11-3.3,16.719.876,5.346,3.77,10.356,7.055,14.574,3.145,4.039,7.137,7.865,12.036,9.623,2.427.87,3.473-2.993,1.063-3.858Z"/><path class="b" d="M270.483,155.47h.01l-1.01-.273q7.781,3.831,15.584,7.612c4.311,2.079,8.87,3.884,12.966,6.368a37.544,37.544,0,0,1,11.161,10.348c3.416,4.833,5.853,10.44,8.212,15.844,2.759,6.322,5.835,12.509,8.736,18.766,3.323,7.167,6.8,14.382,9.3,21.889a27.335,27.335,0,0,1,1.468,7,19.731,19.731,0,0,1-1.738,9.144,67.37,67.37,0,0,1-7.994,14.557,2.012,2.012,0,0,0,.717,2.736,2.05,2.05,0,0,0,2.737-.718,67.425,67.425,0,0,0,7.472-13.357,29.178,29.178,0,0,0,2.689-8.333,26.143,26.143,0,0,0-.564-8.822,63.7,63.7,0,0,0-3.594-10.25c-1.71-4.134-3.531-8.221-5.392-12.289-3.222-7.048-6.644-14.006-9.823-21.074a141.985,141.985,0,0,0-7.065-14.481,42.365,42.365,0,0,0-11.07-12.228c-4.5-3.369-9.752-5.452-14.784-7.869q-4.49-2.159-8.963-4.35-2.323-1.136-4.646-2.277l-2.274-1.118a5.2,5.2,0,0,0-2.133-.821c-2.574,0-2.578,4,0,4Z"/><path class="a" d="M287.733,258.113q-.515.345-1.031.748c-3.516,2.535-6.164,4.76-7.1,6.9a4.349,4.349,0,0,0,1.431,5.12l1.8,1.069c-1.42,1.028-2.781,2.066-4.127,3.22-2.415,2.057-3.967,4.443-3.385,6.315.957,3.045,4.062,2.766,5.523,1.939a24.171,24.171,0,0,0-2.22,1.929,4.616,4.616,0,0,0,.411,6.089c1.369,1.113,4.441.861,6.665-.576l2.4-1.717c-1.492,1.784-1.523,4.173.394,5.429,1.758,1.152,4.687.491,5.995-.148a90.2,90.2,0,0,0,8.048-5.019c.977-.609,2.744-1.676,4.481-2.749,1.5-1.649-.5,1.074-1.293,2.622a7.208,7.208,0,0,0-.62,1.994,3.047,3.047,0,0,0,.889,2.775c2,2.1,4.59-.457,7.195-2.1a32.566,32.566,0,0,0,6.148-4.576,23.934,23.934,0,0,0,6.619-11.719,15.769,15.769,0,0,0-.868-10.879,19.669,19.669,0,0,0-4.355-5.7c-2.529-1.912-8.131-3.474-10.809-3.742a52.6,52.6,0,0,0-11.557-.244C294.43,255.4,291.094,255.862,287.733,258.113Z"/><path class="b" d="M298.482,273.338l.031-.022-2.019-3.453c-3.673,2.75-7.556,5.251-11.31,7.89-1.2.845-2.4,1.7-3.579,2.579-1.649,1.231-3.731,2.514-4.894,4.257a6.749,6.749,0,0,0-.361,6.539,5.323,5.323,0,0,0,4.871,3c3.456.133,5.973-1.887,8.606-3.767a2.055,2.055,0,0,0,.717-2.736,2.015,2.015,0,0,0-2.736-.718c-1.6,1.141-3.2,2.624-5.152,3.086a4.487,4.487,0,0,1-1.905.072c.048.011-.579-.213-.4-.129.119.058-.242-.288-.05-.042-.012-.016-.24-.266-.1-.078a2.635,2.635,0,0,1,.636-3.8c4.085-3.607,8.873-6.562,13.339-9.673,1.444-1.006,2.932-1.968,4.341-3.023a2.062,2.062,0,0,0,.717-2.736,2.02,2.02,0,0,0-2.736-.717l-.031.021a2.05,2.05,0,0,0-.718,2.736,2.019,2.019,0,0,0,2.737.718Z"/><path class="b" d="M279.846,281.685c-.471.258.143.023-.194.1-.157.036-.311.095-.467.135s-.492.064-.141.037a4.7,4.7,0,0,1-.7.006c.356.025-.022-.006-.172-.045a3.268,3.268,0,0,1-.343-.112q.256.1.066.007a.888.888,0,0,1-.467-.463,1.131,1.131,0,0,1-.227-.878c-.02.3.075-.3.083-.325a2.176,2.176,0,0,1,.209-.519,10.158,10.158,0,0,1,2.378-2.833c4.281-3.8,9.363-6.538,13.808-10.117a2.014,2.014,0,0,0,0-2.829,2.049,2.049,0,0,0-2.829,0c-2,1.61-4.219,2.959-6.315,4.438-2.252,1.589-4.5,3.184-6.627,4.945-1.9,1.579-3.951,3.568-4.539,6.069a5.485,5.485,0,0,0,2.426,5.921,6.242,6.242,0,0,0,6.072-.083c2.26-1.234.243-4.689-2.019-3.454Z"/><path class="b" d="M301.323,276.928c-3.442,2.421-6.9,4.821-10.292,7.32-2.731,2.015-6.39,4.3-5.972,8.194.48,4.469,5.451,5.423,9.057,4.269,3.516-1.126,6.5-3.745,9.588-5.674,2.845-1.775,5.787-3.42,8.531-5.351a2.053,2.053,0,0,0,.718-2.736,2.017,2.017,0,0,0-2.736-.718c-2.144,1.509-4.422,2.836-6.657,4.2-2.467,1.507-4.825,3.174-7.282,4.693a13.364,13.364,0,0,1-3.919,1.916c-.929.219-2.566.44-3.177-.526-.643-1.017.42-2.051,1.137-2.647.994-.826,1.994-1.631,3.037-2.393,3.3-2.409,6.647-4.747,9.986-7.1a2.053,2.053,0,0,0,.718-2.736,2.017,2.017,0,0,0-2.737-.717Z"/><path class="b" d="M282.042,269.151a2.341,2.341,0,0,1-.539-2.74,10.121,10.121,0,0,1,2.66-3.048c2.529-2.231,5.38-4.493,8.67-5.42a37.676,37.676,0,0,1,9.691-1.063,42.566,42.566,0,0,1,8.718.679,24.013,24.013,0,0,1,7.789,2.774,13.3,13.3,0,0,1,4.807,6.619c2.013,6.013-.615,12.924-4.59,17.541-2.6,3.023-5.91,4.963-9.185,7.166-.723.486-2.662,2.081-3,.366-.286-1.467,1.281-3.25,1.988-4.4,1.351-2.2-2.108-4.212-3.454-2.019-1.108,1.8-2.259,3.508-2.5,5.671a5.189,5.189,0,0,0,2.584,5.041c1.891,1.061,4,.3,5.7-.751,1.865-1.151,3.709-2.4,5.516-3.646,6.587-4.525,11.532-12.266,11.626-20.43a17.988,17.988,0,0,0-4.149-11.449c-2.359-3.031-5.532-4.5-9.15-5.593A42.525,42.525,0,0,0,304.4,252.9a44.565,44.565,0,0,0-12.093,1.042,18.222,18.222,0,0,0-6.268,2.924,46.2,46.2,0,0,0-5.789,4.68,8.933,8.933,0,0,0-2.944,5.293,6.33,6.33,0,0,0,2.715,5.764c2.139,1.446,4.143-2.018,2.019-3.454Z"/><path class="b" d="M229.076,125.562c2.128,2.078,5.462,2.717,8.31,2.878a14.607,14.607,0,0,0,9.3-2.565,2.051,2.051,0,0,0,.717-2.736,2.018,2.018,0,0,0-2.736-.718c-.389.269-.783.531-1.192.767q-.351.2-.712.381c-.131.064-.262.125-.394.184.383-.171-.18.065-.21.076a10.824,10.824,0,0,1-4.5.625,13.13,13.13,0,0,1-4.172-.8c-.051-.019-.487-.2-.224-.085s-.135-.066-.185-.09c-.206-.1-.408-.208-.605-.326-.11-.065-.657-.407-.365-.225s-.121-.112-.2-.193c-1.843-1.8-4.674,1.026-2.829,2.828Z"/><path class="b" d="M237.459,108.778a36.574,36.574,0,0,1,.855,3.91l-.072-.532a2.371,2.371,0,0,1,.015.539l.071-.531a1.335,1.335,0,0,1-.059.242l.2-.477a1.073,1.073,0,0,1-.085.156l.313-.4a.9.9,0,0,1-.128.126l.405-.313a2.415,2.415,0,0,1-.31.164l.478-.2a2.281,2.281,0,0,1-.522.153l.532-.072a2.059,2.059,0,0,1-.49,0l.531.072c-.184-.026-.365-.071-.55-.1a1.526,1.526,0,0,0-.8-.036,1.5,1.5,0,0,0-.743.238,2,2,0,0,0-.718,2.736,1.912,1.912,0,0,0,1.2.919c.42.057.828.164,1.255.182a4,4,0,0,0,1.849-.439,2.667,2.667,0,0,0,1.479-1.759,4.432,4.432,0,0,0-.019-1.894c-.213-1.26-.5-2.508-.828-3.743a2,2,0,0,0-3.857,1.063Z"/><path class="b" d="M249.948,100.377c-.02-1.911.761-4.1,2.525-5.019a4.331,4.331,0,0,1,6.029,3.081c.944,2.89-.54,6.745-3.84,7.078C251.965,105.671,249.905,102.91,249.948,100.377Z"/><path class="b" d="M216.633,100.389c-.02-1.91.761-4.1,2.525-5.018a4.33,4.33,0,0,1,6.029,3.081c.944,2.889-.54,6.744-3.84,7.078C218.65,105.683,216.59,102.923,216.633,100.389Z"/></svg>